<?xml version="1.0" encoding="utf-8"?>
<!-- Generator: Adobe Illustrator 24.0.1, SVG Export Plug-In . SVG Version: 6.00 Build 0)  -->
<svg version="1.1" id="Layer_1" xmlns="http://www.w3.org/2000/svg" xmlns:xlink="http://www.w3.org/1999/xlink" x="0px" y="0px"
	 viewBox="0 0 79.3 102.3" style="enable-background:new 0 0 79.3 102.3;" xml:space="preserve">
<style type="text/css">
	.st0{fill:#FFFFFF;}
	.st1{fill:#00B7B9;}
	.st2{fill:#2D317C;}
	.st3{fill:#53C3BF;}
	.st4{fill:#40C0C0;}
</style>
<g>
	<g>
		<g>
			<path class="st1" d="M24.6,76.5c0,1.2-0.6,1.7-1.7,1.7h-5.9c-1.1,0-1.7-0.6-1.7-1.7V61c0-1.2,0.6-1.7,1.7-1.7h5.9
				c1.2,0,1.7,0.6,1.7,1.7v4.4h-2.8v-3.7h-3.7v14.1h3.7v-4h2.8L24.6,76.5L24.6,76.5z"/>
			<polygon class="st1" points="33.5,59.3 33.5,67.1 29.6,67.1 29.6,59.3 26.8,59.3 26.8,78.2 29.6,78.2 29.6,69.7 33.5,69.7 
				33.5,78.2 36.3,78.2 36.3,59.3 			"/>
			<rect x="38.6" y="59.3" class="st1" width="2.8" height="18.9"/>
			<path class="st1" d="M50.1,61.7h-3.5v7.2h3.5V61.7z M52.9,69.6c0,1.2-0.6,1.8-1.7,1.8h-4.6v6.9h-2.8V59.3h7.4
				c1.2,0,1.7,0.6,1.7,1.7V69.6z"/>
			<path class="st1" d="M64,76.5c0,1.2-0.6,1.7-1.7,1.7h-5.7c-1.1,0-1.7-0.6-1.7-1.7V72h2.8v3.9h3.5v-3.7l-5.7-5.4
				c-0.4-0.4-0.6-0.9-0.6-1.5V61c0-1.2,0.6-1.7,1.7-1.7h5.7c1.2,0,1.7,0.6,1.7,1.7v4.2h-2.8v-3.6h-3.5v3.4l5.7,5.3
				c0.4,0.4,0.6,0.9,0.6,1.5V76.5z"/>
		</g>
		<g>
			<path class="st2" d="M5.9,86.8l1.4,8.5H4.5L5.9,86.8z M4.4,82.4l-3.7,18.9v0.1h2.8l0.6-3.6h3.6l0.6,3.6H11l-3.6-19H4.4z"/>
			<polygon class="st2" points="12.6,82.4 12.6,101.4 20.1,101.4 20.1,98.8 15.4,98.8 15.4,82.4 			"/>
			<polygon class="st2" points="21.7,82.4 21.7,101.4 29.2,101.4 29.2,98.8 24.6,98.8 24.6,82.4 			"/>
			<rect x="30.9" y="82.4" class="st2" width="2.8" height="18.9"/>
			<path class="st2" d="M40.5,86.8l1.4,8.5h-2.8L40.5,86.8z M39,82.4l-3.7,18.9v0.1h2.8l0.6-3.6h3.6l0.6,3.6h2.8l-3.6-19H39z"/>
			<path class="st2" d="M56.9,101.4h-2.5l-4.5-11.9c0.1,0.6,0.2,1,0.2,1.4v10.6h-2.8V82.4h2.5l4.5,11.7c-0.1-0.6-0.2-1-0.2-1.4V82.4
				h2.8V101.4z"/>
			<path class="st2" d="M68.4,99.6c0,1.2-0.6,1.7-1.7,1.7h-5.9c-1.1,0-1.7-0.6-1.7-1.7V84.2c0-1.2,0.6-1.7,1.7-1.7h5.9
				c1.2,0,1.7,0.6,1.7,1.7v4.4h-2.8v-3.7H62v14.1h3.7v-4h2.8V99.6z"/>
			<polygon class="st2" points="70.7,82.4 70.7,101.4 78.5,101.4 78.5,98.9 73.5,98.9 73.5,92.9 77.8,92.9 77.8,90.5 73.5,90.5 
				73.5,84.9 78.5,84.9 78.5,82.4 			"/>
		</g>
	</g>
	<g>
		<path class="st2" d="M63.7,28.6c-1.5,0-2.8,1.1-3.2,2.5H56v-3.7h-3.7v-2.2H56V25v-3.5V20v-3.2v-0.5h-3.7v-2.2H56v-3.7h4.5
			c0.1,0.6,0.4,1.1,0.9,1.5c0.6,0.6,1.4,1,2.3,1c0.9,0,1.7-0.4,2.3-1c0.6-0.6,1-1.4,1-2.3c0-1.8-1.5-3.3-3.3-3.3
			c-1.5,0-2.8,1.1-3.2,2.5h-4.5V5.2h-3.7V1H27v4.3h-2.9h-0.8v0.6v3.1v1.5v3v0.7H27v2.2h-2.9h-0.8V20h-4.5c-0.4-1.5-1.7-2.5-3.2-2.5
			c-1.8,0-3.3,1.5-3.3,3.3c0,0.9,0.4,1.7,1,2.3c0.6,0.6,1.4,1,2.3,1s1.7-0.4,2.3-1c0.4-0.4,0.7-1,0.9-1.5h4.6v3.7H27v2.2h-2.9h-0.8
			v0.5v3.1v1.5v2.9v0.8H27v2.2h-2.9h-0.8v3.7h-4.5c-0.4-1.5-1.7-2.5-3.2-2.5c-1.8,0-3.3,1.5-3.3,3.3c0,1.8,1.5,3.3,3.3,3.3
			c1.5,0,2.8-1.1,3.2-2.5h4.5v3.7H27v4.3h25.2v-4.3h3.6v-8.9h-3.6v-2.2H56v-3.7h4.5c0.1,0.6,0.4,1.1,0.9,1.5c0.6,0.6,1.4,1,2.3,1
			c0.9,0,1.7-0.4,2.3-1c0.6-0.6,1-1.4,1-2.3C66.9,30,65.5,28.6,63.7,28.6"/>
		<path class="st3" d="M63.7,11.4c0.5,0,0.9-0.2,1.2-0.5c0.3-0.3,0.5-0.8,0.5-1.2c0-0.5-0.2-0.9-0.5-1.2c-0.3-0.3-0.8-0.5-1.2-0.5
			s-0.9,0.2-1.2,0.5c-0.3,0.3-0.5,0.8-0.5,1.2c0,0.5,0.2,0.9,0.5,1.2C62.8,11.2,63.2,11.4,63.7,11.4"/>
		<path class="st3" d="M63.7,33.6c0.5,0,0.9-0.2,1.2-0.5c0.3-0.3,0.5-0.8,0.5-1.2c0-0.5-0.2-0.9-0.5-1.2c-0.3-0.3-0.8-0.5-1.2-0.5
			s-0.9,0.2-1.2,0.5c-0.3,0.3-0.5,0.8-0.5,1.2c0,0.5,0.2,0.9,0.5,1.2C62.8,33.4,63.2,33.6,63.7,33.6"/>
		<rect x="48.6" y="6.7" class="st0" width="5.8" height="5.8"/>
		<rect x="24.9" y="17.8" class="st0" width="5.8" height="5.8"/>
		<rect x="24.9" y="28.9" class="st2" width="5.8" height="5.8"/>
		<rect x="24.9" y="40" class="st0" width="5.8" height="5.8"/>
		<rect x="48.6" y="28.9" class="st0" width="5.8" height="5.8"/>
		<polygon class="st3" points="47.1,38.1 47.8,38.1 50.8,38.1 50.8,35.9 47.1,35.9 47.1,27 47.8,27 50.8,27 50.8,24.8 47.1,24.8 
			47.1,15.9 47.8,15.9 50.8,15.9 50.8,13.7 47.1,13.7 47.1,4.8 47.8,4.8 50.8,4.8 50.8,2.1 28.5,2.1 28.5,4.8 32.2,4.8 32.2,13.7 
			28.5,13.7 28.5,15.9 32.2,15.9 32.2,24.8 28.5,24.8 28.5,27 32.2,27 32.2,35.9 28.5,35.9 28.5,38.1 32.2,38.1 32.2,47 28.5,47 
			28.5,49.8 50.8,49.8 50.8,47 47.1,47 		"/>
		<path class="st4" d="M62.4,8.4c0.3-0.3,0.8-0.5,1.2-0.5c0.5,0,0.9,0.2,1.2,0.5c0.3,0.3,0.5,0.8,0.5,1.2c0,0.5-0.2,0.9-0.5,1.2
			c-0.3,0.3-0.8,0.5-1.2,0.5c-0.5,0-0.9-0.2-1.2-0.5c-0.3-0.3-0.5-0.8-0.5-1.2C61.9,9.2,62.1,8.7,62.4,8.4"/>
		<rect x="48.6" y="6.7" class="st0" width="5.8" height="5.8"/>
		<rect x="24.9" y="17.8" class="st0" width="5.8" height="5.8"/>
		<rect x="24.9" y="28.9" class="st2" width="5.8" height="5.8"/>
		<rect x="24.9" y="40" class="st0" width="5.8" height="5.8"/>
		<polygon class="st4" points="50.8,49.8 28.5,49.8 28.5,47 32.2,47 32.2,38.1 28.5,38.1 28.5,35.9 32.2,35.9 32.2,27 28.5,27 
			28.5,24.8 32.2,24.8 32.2,15.9 28.5,15.9 28.5,13.7 32.2,13.7 32.2,4.8 28.5,4.8 28.5,2.1 50.8,2.1 50.8,4.8 47.8,4.8 47.1,4.8 
			47.1,13.7 50.8,13.7 50.8,15.9 47.8,15.9 47.1,15.9 47.1,24.8 50.8,24.8 50.8,27 47.8,27 47.1,27 47.1,35.9 50.8,35.9 50.8,38.1 
			47.8,38.1 47.1,38.1 47.1,47 50.8,47 		"/>
		<rect x="48.6" y="28.9" class="st0" width="5.8" height="5.8"/>
		<path class="st4" d="M64.9,33.1c-0.3,0.3-0.8,0.5-1.2,0.5c-0.5,0-0.9-0.2-1.2-0.5c-0.3-0.3-0.5-0.8-0.5-1.2c0-0.5,0.2-0.9,0.5-1.2
			c0.3-0.3,0.8-0.5,1.2-0.5c0.5,0,0.9,0.2,1.2,0.5c0.3,0.3,0.5,0.8,0.5,1.2C65.4,32.3,65.2,32.8,64.9,33.1"/>
	</g>
</g>
</svg>
