<?xml version="1.0" encoding="UTF-8" standalone="no"?>
<svg
   xmlns:dc="http://purl.org/dc/elements/1.1/"
   xmlns:cc="http://creativecommons.org/ns#"
   xmlns:rdf="http://www.w3.org/1999/02/22-rdf-syntax-ns#"
   xmlns:svg="http://www.w3.org/2000/svg"
   xmlns="http://www.w3.org/2000/svg"
   height="464.97345"
   width="500"
   xml:space="preserve"
   viewBox="0 0 500 464.97346"
   y="0px"
   x="0px"
   id="Layer_1"
   version="1.1"><metadata
     id="metadata71"><rdf:RDF><cc:Work
         rdf:about=""><dc:format>image/svg+xml</dc:format><dc:type
           rdf:resource="http://purl.org/dc/dcmitype/StillImage" /><dc:title></dc:title></cc:Work></rdf:RDF></metadata><defs
     id="defs69" /><style
     id="style2"
     type="text/css">
	.st0{fill:#2B2E7D;}
	.st1{fill:#10CFC9;}
	.st2{fill:#1226AA;}
	.st3{fill:#51C2BE;}
	.st4{fill:#FFFFFF;}
</style><g
     transform="scale(1.4180343)"
     id="g120"><path
       style="fill:#2b2e7d"
       id="path4"
       d="m 331.6,178.4 c -9.8,0 -18.3,6.8 -20.6,16.2 h -29.3 v -23.8 h -23.8 v -14.3 h 23.8 v -1 -22.7 -9.8 -20.6 -3.1 H 257.9 V 84.9 h 23.8 V 61.1 H 311 c 0.9,3.9 2.9,7.3 5.6,10 3.8,3.8 9.1,6.2 14.9,6.2 5.8,0 11.1,-2.4 14.9,-6.2 3.8,-3.8 6.2,-9.1 6.2,-14.9 0,-11.6 -9.5,-21.1 -21.1,-21.1 -9.8,0 -18.3,6.8 -20.6,16.2 H 281.6 V 27.5 H 257.8 V 0 H 94.8 V 27.5 H 76 71 v 3.9 19.9 9.8 19.3 4.5 H 94.8 V 99.2 H 76 71 V 123 H 41.7 C 39.4,113.5 30.9,106.8 21.1,106.8 9.5,106.7 0,116.2 0,127.9 c 0,5.8 2.4,11.1 6.2,14.9 3.8,3.8 9.1,6.2 14.9,6.2 5.8,0 11.1,-2.4 14.9,-6.2 2.7,-2.7 4.7,-6.2 5.6,-10 H 71 v 23.8 h 23.8 v 14.3 H 76 71 v 3.4 20.3 9.8 18.8 4.9 h 23.8 v 14.3 H 76 71 v 23.8 H 41.7 C 39.4,256.7 30.9,250 21.1,250 9.5,250.1 0,259.6 0,271.2 c 0,11.7 9.5,21.1 21.1,21.1 9.8,0 18.3,-6.8 20.6,-16.2 H 71 v 23.8 h 23.8 v 28 h 163.1 v -28 h 23.5 v -57.4 h -23.5 v -14.3 h 23.8 V 204.5 H 311 c 0.9,3.9 2.9,7.3 5.6,10 3.8,3.8 9.1,6.2 14.9,6.2 5.8,0 11.1,-2.4 14.9,-6.2 3.8,-3.8 6.2,-9.1 6.2,-14.9 0.1,-11.7 -9.4,-21.2 -21,-21.2"
       class="st0" /><path
       style="fill:#51c2be"
       id="path32"
       d="m 331.6,67.5 c 3.1,0 6,-1.3 8,-3.3 2,-2.1 3.3,-4.9 3.3,-8 0,-3.1 -1.3,-6 -3.3,-8 -2,-2 -4.9,-3.3 -8,-3.3 -3.1,0 -6,1.3 -8,3.3 -2,2 -3.3,4.9 -3.3,8 0,3.1 1.3,6 3.3,8 2,2 4.9,3.3 8,3.3"
       class="st3" /><path
       style="fill:#51c2be"
       id="path34"
       d="m 331.6,210.9 c 3.1,0 6,-1.3 8,-3.3 2,-2.1 3.3,-4.9 3.3,-8 0,-3.1 -1.3,-6 -3.3,-8 -2,-2 -4.9,-3.3 -8,-3.3 -3.1,0 -6,1.3 -8,3.3 -2,2 -3.3,4.9 -3.3,8 0,3.1 1.3,6 3.3,8 2,2 4.9,3.3 8,3.3"
       class="st3" /><rect
       style="fill:#ffffff"
       id="rect36"
       height="37.700001"
       width="37.700001"
       class="st4"
       y="37.400002"
       x="234.2" /><rect
       style="fill:#ffffff"
       id="rect38"
       height="37.700001"
       width="37.700001"
       class="st4"
       y="109"
       x="80.900002" /><rect
       style="fill:#2b2e7d"
       id="rect40"
       height="37.700001"
       width="37.700001"
       class="st0"
       y="180.7"
       x="80.900002" /><rect
       style="fill:#ffffff"
       id="rect42"
       height="37.700001"
       width="37.700001"
       class="st4"
       y="252.39999"
       x="80.900002" /><rect
       style="fill:#ffffff"
       id="rect44"
       height="37.700001"
       width="37.700001"
       class="st4"
       y="180.7"
       x="234.2" /><polygon
       style="fill:#51c2be"
       id="polygon46"
       points="248.1,175.8 248.1,161.5 224.3,161.5 224.3,104.1 229.3,104.1 248.1,104.1 248.1,89.8 224.3,89.8 224.3,32.4 229.3,32.4 248.1,32.4 248.1,14.7 104.6,14.7 104.6,32.4 128.4,32.4 128.4,89.8 104.6,89.8 104.6,104.1 128.4,104.1 128.4,161.5 104.6,161.5 104.6,175.8 128.4,175.8 128.4,233.2 104.6,233.2 104.6,247.5 128.4,247.5 128.4,304.8 104.6,304.8 104.6,323 248.1,323 248.1,304.8 224.3,304.8 224.3,247.5 229.3,247.5 248.1,247.5 248.1,233.2 224.3,233.2 224.3,175.8 229.3,175.8 "
       class="st3"
       transform="translate(0,-7.5)" /><path
       style="fill:#10cfc9"
       id="path48"
       d="m 323.6,48.2 c 2,-2 4.9,-3.3 8,-3.3 3.1,0 6,1.3 8,3.3 2,2 3.3,4.9 3.3,8 0,3.1 -1.3,5.9 -3.3,8 -2,2 -4.9,3.3 -8,3.3 -3.1,0 -6,-1.3 -8,-3.3 -2,-2 -3.3,-4.9 -3.3,-8 0,-3.1 1.2,-6 3.3,-8"
       class="st1" /><rect
       style="fill:#ffffff"
       id="rect50"
       height="37.700001"
       width="37.700001"
       class="st4"
       y="37.400002"
       x="234.2" /><rect
       style="fill:#ffffff"
       id="rect52"
       height="37.700001"
       width="37.700001"
       class="st4"
       y="109"
       x="80.900002" /><rect
       style="fill:#2b2e7d"
       id="rect54"
       height="37.700001"
       width="37.700001"
       class="st0"
       y="180.7"
       x="80.900002" /><rect
       style="fill:#ffffff"
       id="rect56"
       height="37.700001"
       width="37.700001"
       class="st4"
       y="252.39999"
       x="80.900002" /><polygon
       style="fill:#10cfc9"
       id="polygon58"
       points="128.4,233.2 128.4,175.8 104.6,175.8 104.6,161.5 128.4,161.5 128.4,104.1 104.6,104.1 104.6,89.8 128.4,89.8 128.4,32.4 104.6,32.4 104.6,14.7 248.1,14.7 248.1,32.4 229.3,32.4 224.3,32.4 224.3,89.8 248.1,89.8 248.1,104.1 229.3,104.1 224.3,104.1 224.3,161.5 248.1,161.5 248.1,175.8 229.3,175.8 224.3,175.8 224.3,233.2 248.1,233.2 248.1,247.5 229.3,247.5 224.3,247.5 224.3,304.8 248.1,304.8 248.1,323 104.6,323 104.6,304.8 128.4,304.8 128.4,247.5 104.6,247.5 104.6,233.2 "
       class="st1"
       transform="translate(0,-7.5)" /><rect
       style="fill:#ffffff"
       id="rect60"
       height="37.700001"
       width="37.700001"
       class="st4"
       y="180.7"
       x="234.2" /><path
       style="fill:#10cfc9"
       id="path62"
       d="m 339.6,207.6 c -2,2 -4.9,3.3 -8,3.3 -3.1,0 -6,-1.3 -8,-3.3 -2,-2 -3.3,-4.9 -3.3,-8 0,-3.1 1.3,-6 3.3,-8 2,-2 4.9,-3.3 8,-3.3 3.1,0 6,1.3 8,3.3 2,2 3.3,4.9 3.3,8 0,3.1 -1.3,5.9 -3.3,8"
       class="st1" /></g></svg>