<?xml version="1.0" encoding="utf-8"?>
<!-- Generator: Adobe Illustrator 24.0.1, SVG Export Plug-In . SVG Version: 6.00 Build 0)  -->
<svg version="1.1" id="Layer_1" xmlns="http://www.w3.org/2000/svg" xmlns:xlink="http://www.w3.org/1999/xlink" x="0px" y="0px"
	 viewBox="0 0 79.3 102.3" style="enable-background:new 0 0 79.3 102.3;" xml:space="preserve">
<style type="text/css">
	.st0{fill:#FFFFFF;}
	.st1{fill:#00B7B9;}
	.st2{fill:#2D317C;}
	.st3{fill:#53C3BF;}
	.st4{fill:#40C0C0;}
</style>
<g>
	<path class="st0" d="M24.6,65.5V61c0-1.2-0.6-1.7-1.7-1.7h-5.9c-1.1,0-1.7,0.6-1.7,1.7v15.5c0,1.2,0.6,1.7,1.7,1.7h5.9
		c1.2,0,1.7-0.6,1.7-1.7h0v-4.7h-2.8v4h-3.7V61.7h3.7v3.7H24.6z"/>
	<polygon class="st0" points="33.5,78.2 36.3,78.2 36.3,59.3 33.5,59.3 33.5,67.1 29.6,67.1 29.6,59.3 26.8,59.3 26.8,78.2 
		29.6,78.2 29.6,69.7 33.5,69.7 	"/>
	<rect x="38.6" y="59.3" class="st0" width="2.8" height="18.9"/>
	<path class="st0" d="M52.9,69.6V61c0-1.2-0.6-1.7-1.7-1.7h-7.4v18.9h2.8v-6.9h4.6C52.3,71.4,52.9,70.8,52.9,69.6z M50.1,68.9h-3.5
		v-7.2h3.5V68.9z"/>
	<path class="st0" d="M64,65.2V61c0-1.2-0.6-1.7-1.7-1.7h-5.7c-1.1,0-1.7,0.6-1.7,1.7v4.2c0,0.6,0.2,1.1,0.6,1.5l5.7,5.4v3.7h-3.5
		V72h-2.8v4.5c0,1.2,0.6,1.7,1.7,1.7h5.7c1.2,0,1.7-0.6,1.7-1.7V72c0-0.6-0.2-1.2-0.6-1.5l-5.7-5.3v-3.4h3.5v3.6H64z"/>
	<path class="st0" d="M4.4,82.4l-3.7,18.9v0.1h2.8l0.6-3.6h3.6l0.6,3.6H11l-3.6-19H4.4z M4.5,95.3l1.4-8.5l1.4,8.5H4.5z"/>
	<polygon class="st0" points="15.4,82.4 12.6,82.4 12.6,101.4 20.1,101.4 20.1,98.8 15.4,98.8 	"/>
	<polygon class="st0" points="24.6,82.4 21.7,82.4 21.7,101.4 29.2,101.4 29.2,98.8 24.6,98.8 	"/>
	<rect x="30.9" y="82.4" class="st0" width="2.8" height="18.9"/>
	<path class="st0" d="M39,82.4l-3.7,18.9v0.1h2.8l0.6-3.6h3.6l0.6,3.6h2.8l-3.6-19H39z M39.1,95.3l1.4-8.5l1.4,8.5H39.1z"/>
	<path class="st0" d="M54.1,92.7c0,0.3,0.1,0.8,0.2,1.4l-4.5-11.7h-2.5v18.9H50V90.8c0-0.3-0.1-0.8-0.2-1.4l4.5,11.9h2.5V82.4h-2.8
		V92.7z"/>
	<path class="st0" d="M66.7,82.4h-5.9c-1.1,0-1.7,0.6-1.7,1.7v15.5c0,1.2,0.6,1.7,1.7,1.7h5.9c1.2,0,1.7-0.6,1.7-1.7V95h-2.8v4H62
		V84.9h3.7v3.7h2.8v-4.4C68.4,83,67.9,82.4,66.7,82.4z"/>
	<polygon class="st0" points="73.5,98.9 73.5,92.9 77.8,92.9 77.8,90.5 73.5,90.5 73.5,84.9 78.5,84.9 78.5,82.4 70.7,82.4 
		70.7,101.4 78.5,101.4 78.5,98.9 	"/>
	<path class="st0" d="M24.1,38.5h-0.8v3.7h-4.5c-0.4-1.5-1.7-2.5-3.2-2.5c-1.8,0-3.3,1.5-3.3,3.3c0,1.8,1.5,3.3,3.3,3.3
		c1.5,0,2.8-1.1,3.2-2.5h4.5v3.7H27v4.3h25.2v-4.3h3.6v-8.9h-3.6v-2.2H56v-3.7h4.5c0.1,0.6,0.4,1.1,0.9,1.5c0.6,0.6,1.4,1,2.3,1
		c0.9,0,1.7-0.4,2.3-1c0.6-0.6,1-1.4,1-2.3c0-1.8-1.5-3.3-3.3-3.3c-1.5,0-2.8,1.1-3.2,2.5H56v-3.7h-3.7v-2.2H56V25v-3.5V20v-3.2
		v-0.5h-3.7v-2.2H56v-3.7h4.5c0.1,0.6,0.4,1.1,0.9,1.5c0.6,0.6,1.4,1,2.3,1c0.9,0,1.7-0.4,2.3-1c0.6-0.6,1-1.4,1-2.3
		c0-1.8-1.5-3.3-3.3-3.3c-1.5,0-2.8,1.1-3.2,2.5h-4.5V5.2h-3.7V1H27v4.3h-2.9h-0.8v0.6v3.1v1.5v3v0.7H27v2.2h-2.9h-0.8V20h-4.5
		c-0.4-1.5-1.7-2.5-3.2-2.5c-1.8,0-3.3,1.5-3.3,3.3c0,0.9,0.4,1.7,1,2.3c0.6,0.6,1.4,1,2.3,1s1.7-0.4,2.3-1c0.4-0.4,0.7-1,0.9-1.5
		h4.6v3.7H27v2.2h-2.9h-0.8v0.5v3.1v1.5v2.9v0.8H27v2.2H24.1z M62.4,30.6c0.1-0.1,0.2-0.2,0.3-0.2c0.3-0.2,0.6-0.3,0.9-0.3
		c0.4,0,0.7,0.1,1,0.3c0.1,0.1,0.2,0.1,0.2,0.2c0.3,0.3,0.5,0.8,0.5,1.2c0,0.5-0.2,0.9-0.5,1.2c-0.3,0.3-0.8,0.5-1.2,0.5
		c-0.5,0-0.9-0.2-1.2-0.5c-0.1-0.1-0.2-0.2-0.3-0.4c-0.2-0.3-0.2-0.6-0.2-0.9c0-0.3,0.1-0.6,0.3-0.9C62.3,30.8,62.3,30.7,62.4,30.6z
		 M62.4,8.4c0.1-0.1,0.1-0.1,0.2-0.2c0,0,0.1-0.1,0.1-0.1C63,8,63.4,7.9,63.7,7.9c0.5,0,0.9,0.2,1.2,0.5C65,8.5,65,8.6,65.1,8.6
		c0.2,0.3,0.3,0.6,0.3,1c0,0.3-0.1,0.5-0.2,0.7c-0.1,0.2-0.2,0.3-0.3,0.5c-0.1,0.1-0.3,0.3-0.5,0.4c-0.2,0.1-0.5,0.2-0.7,0.2
		c-0.3,0-0.5-0.1-0.8-0.2c-0.2-0.1-0.3-0.2-0.5-0.3c-0.3-0.3-0.5-0.8-0.5-1.2c0,0,0,0,0,0C61.9,9.2,62.1,8.7,62.4,8.4
		C62.4,8.4,62.4,8.4,62.4,8.4z M54.4,28.9v5.8h-5.8v-5.8H54.4z M54.4,6.7v5.8h-5.8V6.7H54.4z M28.5,13.7h3.7V4.8h-3.7V2.1h0v0h22.2
		v2.7h0v0h-2.9h-0.8v8.9h3.7v0h0v2.2h0v0h-2.9h-0.8v8.9h3.7v0h0V27h0v0h-2.9h-0.8v8.9h3.7v0h0v2.2h0v0h-2.9h-0.8V47h3.7v2.8h0v0
		H28.5V47h0v0h3.7v-8.9h-3.7v-2.2h3.7V27h-3.7v-2.2h3.7v-8.9h-3.7V13.7z M24.9,23.7v-5.8h5.8v5.8H24.9z M30.7,40v5.8h-5.8V40H30.7z"
		/>
</g>
</svg>
