<?xml version="1.0" encoding="UTF-8" standalone="no"?>
<svg
   xmlns:dc="http://purl.org/dc/elements/1.1/"
   xmlns:cc="http://creativecommons.org/ns#"
   xmlns:rdf="http://www.w3.org/1999/02/22-rdf-syntax-ns#"
   xmlns:svg="http://www.w3.org/2000/svg"
   xmlns="http://www.w3.org/2000/svg"
   height="327.89999"
   width="352.60077"
   xml:space="preserve"
   viewBox="0 0 352.60077 327.9"
   y="0px"
   x="0px"
   id="Layer_1"
   version="1.1"><metadata
   id="metadata892">
  <rdf:RDF>
    <cc:Work
       rdf:about="">
      <dc:format>image/svg+xml</dc:format>
      <dc:type
         rdf:resource="http://purl.org/dc/dcmitype/StillImage" />
      <dc:title></dc:title>
    </cc:Work>
  </rdf:RDF>
</metadata>
<defs
   id="defs890">
	
	
	
	
	
	
	
	
	
	
	
	
	
	
</defs>

<path
   d="m 331.6,178.4 c -9.8,0 -18.3,6.8 -20.6,16.2 h -29.3 v -23.8 h -23.8 v -14.3 h 23.8 v -1 -22.7 -9.8 -20.6 -3.1 H 257.9 V 84.9 h 23.8 V 61.1 H 311 c 0.9,3.9 2.9,7.3 5.6,10 3.8,3.8 9.1,6.2 14.9,6.2 5.8,0 11.1,-2.4 14.9,-6.2 3.8,-3.8 6.2,-9.1 6.2,-14.9 0,-11.7 -9.5,-21.1 -21.1,-21.1 -9.8,0 -18.3,6.8 -20.6,16.2 H 281.6 V 27.5 H 257.8 V 0 H 94.8 V 27.5 H 76 71 v 3.9 19.9 9.8 19.3 4.5 H 94.8 V 99.2 H 76 71 V 123 H 41.7 C 39.4,113.5 30.9,106.8 21.1,106.8 9.5,106.7 0,116.2 0,127.9 c 0,5.8 2.4,11.1 6.2,14.9 3.8,3.8 9.1,6.2 14.9,6.2 5.8,0 11.1,-2.4 14.9,-6.2 2.7,-2.7 4.7,-6.2 5.6,-10 H 71 v 23.8 h 23.8 v 14.3 H 76 71 v 3.4 20.3 9.8 18.8 4.9 h 23.8 v 14.3 H 76 71 v 23.8 H 41.7 C 39.4,256.7 30.9,250 21.1,250 9.5,250.1 0,259.6 0,271.2 c 0,11.7 9.5,21.1 21.1,21.1 9.8,0 18.3,-6.8 20.6,-16.2 H 71 v 23.8 h 23.8 v 28 h 163.1 v -28 h 23.5 v -57.4 h -23.5 v -14.3 h 23.8 V 204.5 H 311 c 0.9,3.9 2.9,7.3 5.6,10 3.8,3.8 9.1,6.2 14.9,6.2 5.8,0 11.1,-2.4 14.9,-6.2 3.8,-3.8 6.2,-9.1 6.2,-14.9 0.1,-11.7 -9.4,-21.2 -21,-21.2 m -8,-130.2 c 2,-2 4.9,-3.3 8,-3.3 3.1,0 6,1.3 8,3.3 2,2 3.3,4.9 3.3,8 0,3.1 -1.3,6 -3.3,8 -2,2 -4.9,3.3 -8,3.3 -3.1,0 -6,-1.3 -8,-3.3 -2,-2 -3.3,-4.9 -3.3,-8 0,-3.1 1.3,-6 3.3,-8 M 29.1,135.9 c -2.1,2 -4.9,3.3 -8,3.3 -3.1,0 -6,-1.3 -8,-3.3 -2,-2 -3.3,-4.9 -3.3,-8 0,-6.3 5,-11.3 11.3,-11.3 6.3,0 11.3,5 11.3,11.3 0,3.1 -1.2,5.9 -3.3,8 m 0,143.3 c -2.1,2 -4.9,3.3 -8,3.3 -3.1,0 -6,-1.3 -8,-3.3 -2,-2 -3.3,-4.9 -3.3,-8 0,-3.1 1.3,-6 3.3,-8 2,-2 4.9,-3.3 8,-3.3 3.1,0 6,1.3 8,3.3 2,2 3.3,4.9 3.3,8 0,3.2 -1.2,6 -3.3,8 M 271.9,75 H 234.2 V 37.4 h 37.7 z m -191,34 h 37.7 v 37.7 H 80.9 Z m 0,71.7 h 37.7 v 37.7 H 80.9 Z m 0,71.7 h 37.7 v 37.7 H 80.9 Z m 167.2,63.1 H 104.6 v -18.1 h 23.8 V 240 h -23.8 v -14.3 h 23.8 V 168.3 H 104.6 V 154 h 23.8 V 96.7 H 104.6 V 82.3 h 23.8 V 24.9 H 104.6 V 7.2 h 143.5 v 17.7 h -18.8 -4.9 v 57.4 h 23.8 v 14.3 h -18.8 -4.9 v 57.3 h 23.8 v 14.3 h -18.8 -4.9 v 57.4 h 23.8 v 14.3 h -18.8 -4.9 v 57.4 h 23.8 v 18.2 z m 23.8,-97.1 h -37.7 v -37.7 h 37.7 z m 67.7,-10.8 c -2,2 -4.9,3.3 -8,3.3 -3.1,0 -6,-1.3 -8,-3.3 -2,-2 -3.3,-4.9 -3.3,-8 0,-3.1 1.3,-6 3.3,-8 2,-2 4.9,-3.3 8,-3.3 3.1,0 6,1.3 8,3.3 2,2 3.3,4.9 3.3,8 0,3.1 -1.3,5.9 -3.3,8"
   id="path883"
   style="opacity:1;stop-opacity:1" />

</svg>
